<svg xmlns="http://www.w3.org/2000/svg" viewBox="0 0 892 222" width="350">
	<defs>
		<linearGradient id="grd1" gradientUnits="userSpaceOnUse"  x1="51" y1="57.065" x2="868" y2="142.935">
			<stop offset="0" stop-color="#000000"  />
			<stop offset="0.99" stop-color="#4d4e4d"  />
		</linearGradient>
		<linearGradient id="grd2" gradientUnits="userSpaceOnUse"  x1="364.306" y1="193" x2="471.694" y2="7">
			<stop offset="0" stop-color="#000000"  />
			<stop offset="0.99" stop-color="#4d4e4d"  />
		</linearGradient>
	</defs>
	<style>
		tspan { white-space:pre }
		.shp0 { fill: url(#grd1) }
		.shp1 { fill: url(#grd2) }
		.shp2 { fill: #fefefe }
	</style>
	<g id="WhatsApp Logo">
		<path id="Shape 1 copy" class="shp0" d="M71 7L848 7C859.06 7 868 15.94 868 27L868 173C868 184.06 859.06 193 848 193L71 193C59.94 193 51 184.06 51 173L51 27C51 15.94 59.94 7 71 7Z" />
		<path id="Shape 1 copy 2" class="shp1" d="M32 7L804 7C815.06 7 824 15.94 824 27L824 173C824 184.06 815.06 193 804 193L32 193C20.94 193 12 184.06 12 173L12 27C12 15.94 20.94 7 32 7Z" />
		<path id="Log in with  " fill="#ffffff" aria-label="Log in with "  d="M151.21 131L113.27 131Q108.94 131 108.94 126.57L108.94 62.24Q108.94 57.8 113.17 57.8Q117.39 57.8 117.39 62.24L117.39 123.58L151.21 123.58Q155.13 123.58 155.13 127.29Q155.13 131 151.21 131ZM184.09 131.93Q176.77 131.93 171.41 128.73Q166.05 125.54 163.06 119.76Q160.18 113.89 160.18 105.95Q160.18 98.01 163.06 92.24Q166.05 86.36 171.41 83.17Q176.77 79.97 184.09 79.97Q191.31 79.97 196.67 83.17Q202.13 86.36 205.02 92.24Q208.01 98.01 208.01 105.95Q208.01 113.89 205.02 119.76Q202.13 125.54 196.67 128.73Q191.31 131.93 184.09 131.93ZM184.09 125.23Q191.1 125.23 195.33 120.28Q199.56 115.23 199.56 105.95Q199.56 96.57 195.33 91.62Q191.1 86.67 184.09 86.67Q176.98 86.67 172.75 91.62Q168.63 96.57 168.63 105.95Q168.63 115.23 172.75 120.28Q176.98 125.23 184.09 125.23ZM242.75 150.48Q237.29 150.48 232.03 149.25Q226.88 147.91 222.65 145.12Q221.1 144.2 220.79 142.96Q220.59 141.62 221.21 140.48Q221.83 139.25 222.96 138.73Q224.2 138.22 225.54 138.94Q230.07 141.72 234.2 142.75Q238.32 143.78 242.34 143.78Q257.19 143.78 257.19 128.53L257.19 119.66Q255.02 124.4 250.38 127.19Q245.85 129.87 239.97 129.87Q233.06 129.87 228.01 126.67Q222.96 123.47 220.18 117.91Q217.5 112.24 217.5 104.81Q217.5 97.39 220.18 91.83Q222.96 86.16 228.01 83.06Q233.06 79.97 239.97 79.97Q245.85 79.97 250.38 82.55Q254.92 85.12 257.08 89.76L257.08 84.4Q257.08 80.18 261.21 80.18Q265.33 80.18 265.33 84.4L265.33 127.39Q265.33 138.94 259.56 144.71Q253.89 150.48 242.75 150.48ZM241.52 123.06Q248.73 123.06 252.96 118.11Q257.19 113.17 257.19 104.81Q257.19 96.46 252.96 91.62Q248.73 86.67 241.52 86.67Q234.4 86.67 230.18 91.62Q225.95 96.46 225.95 104.81Q225.95 113.17 230.18 118.11Q234.4 123.06 241.52 123.06ZM311.72 68.84Q306.26 68.84 306.26 63.68Q306.26 58.63 311.72 58.63Q317.19 58.63 317.19 63.68Q317.19 68.84 311.72 68.84ZM311.72 131.52Q307.6 131.52 307.6 126.98L307.6 84.81Q307.6 80.38 311.72 80.38Q315.95 80.38 315.95 84.81L315.95 126.98Q315.95 131.52 311.72 131.52ZM335.64 131.72Q331.52 131.72 331.52 127.39L331.52 84.4Q331.52 80.18 335.54 80.18Q339.66 80.18 339.66 84.4L339.66 89.45Q342.13 84.71 346.67 82.34Q351.21 79.97 356.88 79.97Q374.71 79.97 374.71 99.76L374.71 127.39Q374.71 131.72 370.59 131.72Q366.36 131.72 366.36 127.39L366.36 100.28Q366.36 93.27 363.58 90.07Q360.9 86.77 354.92 86.77Q348.01 86.77 343.89 91.1Q339.87 95.33 339.87 102.44L339.87 127.39Q339.87 131.72 335.64 131.72ZM433.99 131.72Q430.17 131.72 428.73 127.8L413.37 86.05Q412.34 83.37 413.37 81.83Q414.5 80.18 416.88 80.18Q418.42 80.18 419.35 80.9Q420.38 81.62 421 83.58L434.19 121.21L447.8 83.58Q449.04 80.18 452.44 80.18Q455.74 80.18 456.98 83.58L470.38 121.31L483.78 83.37Q484.5 81.52 485.43 80.9Q486.46 80.18 488.01 80.18Q490.48 80.18 491.2 82.03Q491.93 83.78 491 86.05L475.64 127.8Q474.09 131.72 470.38 131.72Q466.57 131.72 465.23 127.8L452.24 92.13L439.25 127.8Q437.8 131.72 433.99 131.72ZM507.49 68.84Q502.03 68.84 502.03 63.68Q502.03 58.63 507.49 58.63Q512.96 58.63 512.96 63.68Q512.96 68.84 507.49 68.84ZM507.49 131.52Q503.37 131.52 503.37 126.98L503.37 84.81Q503.37 80.38 507.49 80.38Q511.72 80.38 511.72 84.81L511.72 126.98Q511.72 131.52 507.49 131.52ZM547.39 131.93Q538.52 131.93 534.09 127.29Q529.66 122.55 529.66 113.68L529.66 87.39L522.75 87.39Q519.14 87.39 519.14 84.09Q519.14 80.9 522.75 80.9L529.66 80.9L529.66 69.04Q529.66 64.82 533.88 64.82Q538.01 64.82 538.01 69.04L538.01 80.9L551 80.9Q554.61 80.9 554.61 84.09Q554.61 87.39 551 87.39L538.01 87.39L538.01 112.86Q538.01 118.73 540.48 121.82Q542.96 124.81 548.52 124.81Q550.48 124.81 551.82 124.4Q553.16 123.99 554.19 123.99Q555.12 123.89 555.74 124.61Q556.36 125.33 556.36 127.08Q556.36 128.32 555.84 129.35Q555.43 130.38 554.3 130.79Q553.06 131.21 551 131.62Q549.04 131.93 547.39 131.93ZM568.11 131.72Q563.99 131.72 563.99 127.39L563.99 61.83Q563.99 57.6 568.11 57.6Q572.34 57.6 572.34 61.83L572.34 89.14Q574.81 84.61 579.24 82.34Q583.78 79.97 589.35 79.97Q607.18 79.97 607.18 99.76L607.18 127.39Q607.18 131.72 603.06 131.72Q598.83 131.72 598.83 127.39L598.83 100.28Q598.83 93.27 596.05 90.07Q593.37 86.77 587.39 86.77Q580.48 86.77 576.36 91.1Q572.34 95.33 572.34 102.44L572.34 127.39Q572.34 131.72 568.11 131.72Z" />
		<path id="WA Logo" class="shp2" d="M649 152.54L656.98 123.39C652.06 114.86 649.47 105.18 649.47 95.26C649.48 64.24 674.72 39 705.74 39C720.79 39.01 734.91 44.87 745.54 55.5C756.16 66.14 762.01 80.27 762 95.3C761.99 126.33 736.75 151.57 705.74 151.57C705.73 151.57 705.74 151.57 705.74 151.57L705.71 151.57C696.3 151.56 687.04 149.2 678.83 144.72L649 152.54ZM680.21 134.53L681.92 135.55C689.1 139.81 697.33 142.06 705.72 142.07L705.74 142.07C731.51 142.07 752.49 121.09 752.5 95.3C752.51 82.81 747.65 71.06 738.82 62.22C729.99 53.38 718.25 48.51 705.76 48.5C679.96 48.5 658.98 69.48 658.97 95.26C658.97 104.1 661.44 112.7 666.12 120.15L667.23 121.92L662.51 139.18L680.21 134.53ZM734.08 108.68C733.73 108.1 732.79 107.75 731.39 107.04C729.98 106.34 723.07 102.94 721.78 102.47C720.49 102 719.56 101.76 718.62 103.17C717.68 104.58 714.99 107.75 714.17 108.68C713.35 109.62 712.53 109.74 711.12 109.04C709.72 108.33 705.19 106.85 699.82 102.06C695.64 98.33 692.81 93.73 691.99 92.32C691.17 90.91 691.91 90.15 692.61 89.45C693.24 88.82 694.02 87.81 694.72 86.99C695.42 86.17 695.66 85.58 696.13 84.64C696.59 83.7 696.36 82.88 696.01 82.18C695.66 81.47 692.85 74.55 691.67 71.74C690.53 69 689.37 69.37 688.51 69.33C687.69 69.29 686.75 69.28 685.82 69.28C684.88 69.28 683.36 69.63 682.07 71.04C680.78 72.44 677.15 75.85 677.15 82.76C677.15 89.68 682.18 96.37 682.89 97.31C683.59 98.25 692.8 112.45 706.9 118.53C710.26 119.98 712.88 120.85 714.92 121.5C718.29 122.57 721.35 122.42 723.77 122.05C726.47 121.65 732.09 118.65 733.26 115.37C734.43 112.08 734.43 109.27 734.08 108.68Z" />
	</g>
</svg>
