<svg version="1.2" baseProfile="tiny-ps" xmlns="http://www.w3.org/2000/svg" viewBox="0 0 1500 1500" width="1500" height="1500">
	<title>3094350-ai</title>
	<style>
		tspan { white-space:pre }
		.shp0 { fill: #f0f0f0 } 
		.shp1 { fill: #e0e0e0 } 
		.shp2 { fill: #27debf } 
		.shp3 { fill: #000000 } 
		.shp4 { opacity: 0.302;fill: #000000 } 
		.shp5 { opacity: 0.502;fill: #000000 } 
		.shp6 { fill: #263238 } 
		.shp7 { opacity: 0.702;fill: #000000 } 
		.shp8 { fill: #fafafa } 
		.shp9 { fill: #ffffff } 
		.shp10 { opacity: 0.149;fill: #000000 } 
		.shp11 { opacity: 0.502;fill: #ffffff } 
		.shp12 { fill: #455a64 } 
		.shp13 { fill: #37474f } 
		.shp14 { opacity: 0.102;fill: #000000 } 
		.shp15 { fill: #e6e6e6 } 
		.shp16 { fill: #ffa8a7 } 
		.shp17 { fill: #f28f8f } 
		.shp18 { opacity: 0.4;fill: #000000 } 
		.shp19 { opacity: 0.4;fill: #ffffff } 
		.shp20 { opacity: 0.149;fill: none;stroke: #000000;stroke-width: 3 } 
	</style>
	<g id="Floor">
		<path id="Floor 4 " class="shp0" d="M1246.95 761.51C1522.98 920.88 1522.98 1179.26 1246.94 1338.63C970.91 1498 523.37 1498 247.34 1338.63C-28.69 1179.27 -28.69 920.88 247.34 761.51C523.38 602.15 970.91 602.14 1246.95 761.51Z" />
	</g>
	<g id="Shadow">
		<path id="Shadow 43 " class="shp1" d="M1153.09 1191.67C1106.74 1164.91 1106.74 1121.53 1153.09 1094.77C1199.44 1068.01 1274.58 1068.01 1320.93 1094.77C1367.28 1121.53 1367.28 1164.91 1320.93 1191.67C1274.58 1218.43 1199.44 1218.43 1153.09 1191.67Z" />
		<path id="Shadow 4 " class="shp1" d="M210.36 1195.39L88.43 1124.99C81.56 1121.03 81.56 1114.59 88.43 1110.62L797.6 701.18C804.48 697.22 815.62 697.22 822.49 701.18L944.42 771.57C951.29 775.54 951.29 781.98 944.42 785.94L235.25 1195.39C228.37 1199.35 217.23 1199.35 210.36 1195.39Z" />
	</g>
	<g id="Device">
		<g id="Device 1 ">
			<g id="&lt;Group&gt;">
				<g id="&lt;Group&gt;">
					<path id="&lt;Path&gt;" class="shp2" d="M648.6 1069.93L753.41 1009.33C764.21 1003.09 769.62 994.92 769.62 986.74C769.62 981.29 769.63 976.43 769.66 972.16L660.92 910.84C655.15 907.52 650.48 899.43 650.48 892.77L650.48 763.55L467.41 869.33L467.41 998.56C467.41 1005.21 472.08 1013.3 477.84 1016.63L570.35 1069.93C591.96 1082.41 626.99 1082.41 648.6 1069.93Z" />
				</g>
				<g id="&lt;Group&gt;" style="opacity: 0.6">
					<path id="&lt;Path&gt;" class="shp3" d="M648.6 1069.93L753.41 1009.33C764.21 1003.09 769.62 994.92 769.62 986.74C769.62 981.29 769.63 976.43 769.66 972.16L660.92 910.84C655.15 907.52 650.48 899.43 650.48 892.77L650.48 763.55L467.41 869.33L467.41 998.56C467.41 1005.21 472.08 1013.3 477.84 1016.63L570.35 1069.93C591.96 1082.41 626.99 1082.41 648.6 1069.93Z" />
				</g>
				<path id="&lt;Path&gt;" class="shp4" d="M511.36 1021.44L511.36 1035.96L477.81 1016.62C472.09 1013.31 467.39 1005.24 467.39 998.55L467.39 869.34L502.27 849.22C502.99 858.07 503.77 867.23 504.5 876.15L480.04 890.3L480.04 991.26C480.04 997.95 484.68 1006.02 490.46 1009.33L511.36 1021.44Z" />
				<path id="&lt;Path&gt;" class="shp2" d="M480.04 991.28C480.04 997.94 484.71 1006.03 490.47 1009.36L570.33 1055.36C591.94 1067.83 626.98 1067.84 648.59 1055.37L753.45 994.77C775.07 982.3 775.07 962.08 753.46 949.6L673.54 903.56C667.78 900.24 663.11 892.15 663.11 885.49L663.11 784.52L480.04 890.31L480.04 991.28Z" />
				<path id="&lt;Path&gt;" class="shp4" d="M480.04 991.28C480.04 997.94 484.71 1006.03 490.47 1009.36L570.33 1055.36C591.94 1067.83 626.98 1067.84 648.59 1055.37L753.45 994.77C775.07 982.3 775.07 962.08 753.46 949.6L673.54 903.56C667.78 900.24 663.11 892.15 663.11 885.49L663.11 784.52L480.04 890.31L480.04 991.28Z" />
				<path id="&lt;Path&gt;" class="shp5" d="M694.79 915.85L694.79 915.83L673.54 903.56C667.78 900.24 663.11 892.15 663.11 885.49L663.11 784.52L480.04 890.31L480.04 991.28C480.04 997.94 484.71 1006.03 490.47 1009.36L511.35 1021.41L694.79 915.85Z" />
				<path id="&lt;Path&gt;" class="shp2" d="M769.64 972.17C769.64 976.43 769.64 981.29 769.64 986.75C769.64 994.94 764.22 1003.08 753.44 1009.34L648.61 1069.91C638.25 1075.93 624.82 1078.94 611.26 1079.18L611.26 1064.67C624.82 1064.49 638.25 1061.35 648.61 1055.39L753.44 994.76C764.22 988.56 769.64 980.37 769.64 972.17Z" />
				<path id="&lt;Path&gt;" class="shp5" d="M769.64 972.17C769.64 976.43 769.64 981.29 769.64 986.75C769.64 994.94 764.22 1003.08 753.44 1009.34L648.61 1069.91C638.25 1075.93 624.82 1078.94 611.26 1079.18L611.26 1064.67C624.82 1064.49 638.25 1061.35 648.61 1055.39L753.44 994.76C764.22 988.56 769.64 980.37 769.64 972.17Z" />
			</g>
			<path id="&lt;Path&gt;" class="shp2" d="M186.09 1116.79C192.85 1120.69 204.17 1120.48 211.37 1116.32C301.37 1064.36 829.37 759.53 919.36 707.57C926.56 703.41 932.4 693.3 932.4 684.98L932.4 112.24C932.4 103.93 926.92 94.02 920.16 90.12C913.41 86.22 902.09 86.43 894.89 90.59L186.91 499.34C179.71 503.5 173.87 513.61 173.87 521.93L173.86 1094.67C173.86 1102.98 179.34 1112.89 186.09 1116.79Z" />
			<path id="&lt;Path&gt;" class="shp2" d="M211.37 1116.3L919.36 707.56C926.56 703.4 932.4 693.28 932.4 684.97L932.4 112.23C932.4 103.91 926.56 100.54 919.36 104.7L211.38 513.45C204.18 517.61 198.34 527.72 198.34 536.04L198.33 1108.78C198.33 1117.09 204.17 1120.46 211.37 1116.3Z" />
			<path id="&lt;Path&gt;" class="shp5" d="M211.37 1116.3L919.36 707.56C926.56 703.4 932.4 693.28 932.4 684.97L932.4 112.23C932.4 103.91 926.56 100.54 919.36 104.7L211.38 513.45C204.18 517.61 198.34 527.72 198.34 536.04L198.33 1108.78C198.33 1117.09 204.17 1120.46 211.37 1116.3Z" />
			<path id="&lt;Path&gt;" class="shp2" d="M209.45 1131.19C202.22 1134.38 192.23 1134.26 186.08 1130.71C179.33 1126.79 173.85 1116.92 173.85 1108.54L173.85 1056.39L198.31 1070.55L198.31 1122.7C198.31 1130.29 203.13 1133.72 209.45 1131.19Z" />
			<path id="&lt;Path&gt;" class="shp5" d="M209.45 1131.19C202.22 1134.38 192.23 1134.26 186.08 1130.71C179.33 1126.79 173.85 1116.92 173.85 1108.54L173.85 1056.39L198.31 1070.55L198.31 1122.7C198.31 1130.29 203.13 1133.72 209.45 1131.19Z" />
			<path id="&lt;Path&gt;" class="shp2" d="M198.31 1070.55L198.33 1122.68C198.33 1130.99 204.17 1134.37 211.37 1130.21L919.36 721.46C926.56 717.3 932.4 707.19 932.4 698.87L932.4 646.63L198.31 1070.55Z" />
			<path id="&lt;Path&gt;" class="shp4" d="M198.33 1070.44L198.33 1122.68C198.33 1130.99 204.17 1134.37 211.37 1130.21L919.36 721.46C926.56 717.3 932.4 707.19 932.4 698.87L932.4 646.63L198.33 1070.44Z" />
			<path id="&lt;Path&gt;" class="shp2" d="M222.79 1005.12L222.8 544.16C222.8 539.17 226.3 533.1 230.62 530.6L900.09 144.08C904.41 141.59 907.92 143.61 907.92 148.6L907.94 609.58C907.94 614.57 904.44 620.64 900.11 623.13L230.62 1009.64C226.3 1012.14 222.79 1010.11 222.79 1005.12Z" />
			<path id="&lt;Path&gt;" class="shp6" d="M222.79 1005.12L222.8 544.16C222.8 539.17 226.3 533.1 230.62 530.6L900.09 144.08C904.41 141.59 907.92 143.61 907.92 148.6L907.94 609.58C907.94 614.57 904.44 620.64 900.11 623.13L230.62 1009.64C226.3 1012.14 222.79 1010.11 222.79 1005.12Z" />
			<path id="&lt;Path&gt;" class="shp2" d="M565.36 875.18C558.6 879.08 553.12 888.57 553.12 896.37C553.12 904.18 558.6 907.34 565.36 903.44C572.12 899.54 577.6 890.05 577.59 882.24C577.59 874.44 572.11 871.28 565.36 875.18Z" />
			<path id="&lt;Path&gt;" class="shp7" d="M202.16 523.13C199.82 527.23 198.37 531.87 198.31 536.02L198.31 1070.55L173.85 1056.39L173.87 521.93C173.87 517.77 175.36 513.13 177.71 509.04L202.16 523.13Z" />
			<path id="&lt;Path&gt;" class="shp4" d="M932.27 110.08C931.34 103.36 925.91 100.92 919.34 104.69L211.38 513.46C207.8 515.52 204.56 519.04 202.16 523.14L177.7 509.02C180.08 504.98 183.31 501.4 186.92 499.33L894.89 90.59C902.11 86.43 913.39 86.21 920.18 90.13C926.35 93.67 931.43 102.28 932.27 110.08Z" />
		</g>
	</g>
	<g id="Window">
		<g id="Window">
			<g id="Window 2 ">
				<g id="Window 3 ">
					<g id="&lt;Group&gt;">
						<path id="&lt;Path&gt;" class="shp2" d="M970.48 180.56C968.77 179.54 966.45 179.57 963.82 181.09L295.76 566.85C290.71 569.76 286.62 576.84 286.62 582.67L286.63 1040.83C286.63 1044.38 288.15 1047.52 290.48 1048.77C291.97 1049.57 299.82 1054.14 302.16 1055.39C303.65 1056.2 305.48 1056.22 307.45 1055.09L975.49 669.18C980.54 666.27 984.64 659.19 984.64 653.36L984.64 192.98C984.64 189.98 983.55 187.89 981.8 186.98C980.16 186.12 972.16 181.57 970.48 180.56Z" />
					</g>
					<g id="&lt;Group&gt;">
						<g id="&lt;Group&gt;">
							<path id="&lt;Path&gt;" class="shp8" d="M304.43 1054.47C301.88 1054.47 299.8 1051.32 299.8 1047.45L299.8 589.3C299.8 584.05 303.64 577.39 308.19 574.77L976.25 189.01C977.43 188.32 978.59 187.96 979.58 187.96C981.81 187.96 983.14 189.84 983.14 192.98L983.14 653.36C983.14 658.61 979.29 665.26 974.74 667.88L306.7 1053.79C305.91 1054.24 305.15 1054.47 304.43 1054.47Z" />
							<path id="&lt;Compound Path&gt;" fill-rule="evenodd" class="shp1" d="M984.64 192.98L984.64 653.36C984.64 659.19 980.54 666.27 975.49 669.18L307.45 1055.09C306.39 1055.7 305.38 1055.97 304.43 1055.97C300.86 1055.97 298.3 1052.06 298.3 1047.45L298.3 589.3C298.3 583.47 302.39 576.38 307.44 573.47L975.5 187.71C976.97 186.86 978.35 186.46 979.58 186.46C982.58 186.46 984.64 188.85 984.64 192.98ZM977 190.3L308.94 576.06C304.8 578.46 301.3 584.51 301.3 589.3L301.3 1047.45C301.3 1050.39 302.77 1052.97 304.43 1052.97C304.88 1052.97 305.4 1052.81 305.95 1052.49L973.99 666.58C978.14 664.19 981.64 658.14 981.64 653.36L981.64 192.98C981.64 191.67 981.37 189.46 979.58 189.46C979.07 189.46 978.21 189.61 977 190.3Z" />
						</g>
						<path id="&lt;Path&gt;" class="shp0" d="M290.47 1048.77C291.46 1049.29 298.56 1053.34 301.68 1055.12C299.58 1053.62 298.47 1051.05 298.31 1047.44L298.31 619.19L286.61 612.35L286.61 1040.83C286.61 1044.37 288.14 1047.53 290.47 1048.77Z" />
					</g>
					<g id="&lt;Group&gt;">
						<path id="&lt;Path&gt;" class="shp2" d="M984.63 192.91C984.6 187.14 980.52 184.81 975.5 187.71L307.44 573.47C302.4 576.38 298.3 583.47 298.3 589.3L298.31 619.19L984.63 222.91L984.63 192.91Z" />
						<g id="&lt;Group&gt;" style="opacity: 0.4">
							<path id="&lt;Path&gt;" class="shp9" d="M975.5 187.7L307.45 573.46C304.95 574.93 302.65 577.4 301.01 580.25L289.4 573.52C291.04 570.7 293.29 568.26 295.76 566.85L963.82 181.09C966.44 179.56 968.77 179.54 970.47 180.55C972.1 181.55 979.69 185.86 981.62 186.9C980.01 186.12 977.85 186.35 975.5 187.7Z" />
						</g>
						<path id="&lt;Path&gt;" class="shp10" d="M286.61 612.38L286.62 582.66C286.62 579.7 287.71 576.42 289.4 573.52L301.04 580.22C299.35 583.09 298.31 586.34 298.31 589.3L298.31 619.19L286.61 612.38Z" />
					</g>
				</g>
			</g>
			<g id="&lt;Group&gt;">
				<g id="&lt;Group&gt;">
					<path id="&lt;Path&gt;" class="shp2" d="M843.75 538.27L443.63 769.28C439.94 771.41 436.95 776.59 436.95 780.85L436.95 895.55C436.95 899.81 439.94 904.99 443.63 907.11L455.32 913.84C459.01 915.96 464.99 915.96 468.68 913.83L868.75 682.85C872.44 680.72 875.43 675.54 875.43 671.28L875.48 556.54C875.48 552.28 872.49 547.11 868.8 544.99L857.11 538.26C853.42 536.14 847.44 536.14 843.75 538.27Z" />
					<path id="&lt;Path&gt;" class="shp11" d="M875.43 555.46C874.96 552.01 872.16 550.74 868.8 552.68L468.69 783.69C466.84 784.73 465.17 786.59 463.97 788.68L438.93 774.22C440.13 772.15 441.8 770.33 443.62 769.28L843.75 538.28C847.42 536.15 853.41 536.12 857.11 538.25L868.8 544.97C872.19 546.92 875 551.45 875.43 555.46Z" />
					<path id="&lt;Path&gt;" class="shp6" d="M467.55 914.36C463.85 915.93 458.67 915.75 455.34 913.84L443.65 907.11C439.95 904.99 436.95 899.8 436.95 895.55L436.95 780.85C436.95 778.69 437.72 776.32 438.93 774.22L463.97 788.68C462.74 790.78 462 793.12 462 795.25L462 909.98C462 913.81 464.4 915.56 467.55 914.36Z" />
					<path id="&lt;Path&gt;" class="shp2" d="M468.68 783.7L868.8 552.69C872.49 550.56 875.48 552.28 875.48 556.54L875.43 671.28C875.43 675.54 872.44 680.72 868.75 682.85L468.68 913.83C464.99 915.96 462 914.23 462 909.97L462 795.26C462 791 464.99 785.83 468.68 783.7Z" />
					<path id="&lt;Path&gt;" class="shp12" d="M737.68 599.52L443.62 769.28C441.8 770.33 440.13 772.15 438.93 774.22L463.97 788.68C465.17 786.59 466.84 784.73 468.69 783.69L762.68 613.95L737.68 599.52Z" />
					<path id="&lt;Path&gt;" class="shp13" d="M762.68 613.96L468.68 783.7C464.99 785.83 462.01 791 462.01 795.26L462.01 909.97C462.01 914.23 464.99 915.96 468.68 913.83L762.68 744.09L762.68 613.96Z" />
				</g>
				<g id="&lt;Group&gt;">
					<path id="&lt;Path&gt;" class="shp2" d="M536.49 769.73L688.19 682.14C694.48 678.51 699.58 681.09 699.58 687.9C699.57 694.71 694.47 703.18 688.18 706.81L536.5 794.39C530.21 798.03 525.1 795.45 525.1 788.64C525.1 781.82 530.19 773.36 536.49 769.73Z" />
				</g>
				<g id="&lt;Group&gt;">
					<path id="&lt;Compound Path&gt;" class="shp8" d="M567.57 798.71C567.74 798.61 567.89 798.64 568.02 798.79C568.14 798.94 568.21 799.16 568.21 799.47L568.21 816.55C568.21 818.28 568.06 819.91 567.78 821.46C567.5 823.01 567.08 824.45 566.52 825.78C565.96 827.1 565.25 828.28 564.41 829.31C563.56 830.33 562.59 831.17 561.48 831.81C560.35 832.46 559.37 832.75 558.54 832.7C557.7 832.64 557 832.27 556.44 831.6C555.88 830.92 555.46 829.96 555.19 828.73C554.91 827.51 554.78 826.03 554.78 824.31L554.78 807.22C554.78 806.92 554.84 806.62 554.97 806.33C555.09 806.03 555.24 805.83 555.41 805.74L557.31 804.64C557.48 804.54 557.63 804.56 557.75 804.71C557.88 804.87 557.94 805.09 557.94 805.4L557.94 822.27C557.94 823.41 558.03 824.33 558.2 825.04C558.37 825.75 558.61 826.26 558.92 826.6C559.24 826.93 559.61 827.09 560.05 827.08C560.49 827.06 560.97 826.9 561.48 826.6C562 826.3 562.47 825.91 562.92 825.42C563.37 824.92 563.74 824.33 564.06 823.63C564.37 822.94 564.62 822.14 564.8 821.23C564.98 820.32 565.06 819.3 565.06 818.16L565.06 801.28C565.06 800.98 565.13 800.68 565.25 800.39C565.38 800.09 565.53 799.89 565.7 799.79L567.57 798.71Z" />
					<path id="&lt;Compound Path&gt;" class="shp8" d="M579.34 814.87C579.34 814.57 579.28 814.35 579.17 814.22C579.06 814.09 578.87 814.02 578.6 814.01C578.33 814 577.96 814.04 577.51 814.14C577.05 814.24 576.48 814.35 575.77 814.48C575.08 814.6 574.52 814.57 574.06 814.42C573.61 814.27 573.25 813.99 572.97 813.59C572.7 813.19 572.51 812.68 572.4 812.02C572.29 811.38 572.24 810.64 572.24 809.81C572.24 808.98 572.34 808.09 572.56 807.16C572.78 806.23 573.1 805.33 573.51 804.47C573.93 803.6 574.43 802.81 575.02 802.07C575.62 801.34 576.3 800.76 577.06 800.31C577.83 799.88 578.51 799.63 579.11 799.59C579.72 799.55 580.23 799.66 580.65 799.91C581.07 800.17 581.4 800.56 581.63 801.07C581.87 801.59 582 802.17 582.03 802.82C582.05 803.12 581.99 803.42 581.86 803.72C581.72 804.01 581.57 804.21 581.4 804.31L579.59 805.35C579.36 805.49 579.18 805.51 579.07 805.43C578.95 805.34 578.82 805.24 578.68 805.13C578.54 805.02 578.35 804.95 578.12 804.93C577.89 804.92 577.53 805.04 577.06 805.31C576.59 805.59 576.18 805.95 575.82 806.4C575.46 806.86 575.28 807.41 575.28 808.05C575.28 808.36 575.33 808.59 575.41 808.75C575.5 808.9 575.66 809 575.9 809.02C576.14 809.05 576.48 809.03 576.91 808.96C577.34 808.9 577.9 808.79 578.59 808.65C579.98 808.37 580.96 808.63 581.53 809.42C582.1 810.22 582.39 811.45 582.39 813.11C582.39 813.95 582.27 814.83 582.03 815.76C581.8 816.68 581.46 817.59 581.01 818.47C580.57 819.35 580.02 820.17 579.37 820.92C578.72 821.67 577.99 822.28 577.18 822.74C576.35 823.22 575.62 823.47 574.99 823.49C574.36 823.51 573.82 823.36 573.39 823.06C572.95 822.76 572.61 822.33 572.38 821.77C572.14 821.21 572.02 820.6 572 819.95C571.99 819.65 572.05 819.35 572.18 819.05C572.31 818.75 572.46 818.55 572.63 818.45L574.44 817.41C574.68 817.28 574.85 817.27 574.97 817.4C575.08 817.53 575.22 817.67 575.36 817.83C575.51 818 575.72 818.1 575.99 818.14C576.25 818.18 576.65 818.05 577.18 817.74C577.42 817.61 577.66 817.44 577.91 817.24C578.16 817.04 578.39 816.82 578.6 816.57C578.81 816.33 578.98 816.06 579.13 815.77C579.27 815.48 579.34 815.18 579.34 814.87Z" />
					<path id="&lt;Compound Path&gt;" fill-rule="evenodd" class="shp8" d="M585.45 806.72C585.45 805.16 585.58 803.62 585.85 802.09C586.12 800.57 586.5 799.15 587 797.85C587.5 796.55 588.11 795.4 588.82 794.41C589.53 793.41 590.32 792.66 591.2 792.16C592.07 791.65 592.86 791.48 593.57 791.63C594.28 791.8 594.89 792.21 595.39 792.88C595.89 793.55 596.28 794.45 596.55 795.58C596.82 796.72 596.96 798 596.96 799.41L596.96 801.28C596.96 801.59 596.9 801.89 596.77 802.18C596.65 802.48 596.5 802.68 596.32 802.78L588.5 807.3C588.5 807.93 588.57 808.45 588.72 808.85C588.87 809.25 589.07 809.55 589.32 809.74C589.57 809.93 589.86 810.01 590.19 809.99C590.51 809.96 590.85 809.85 591.2 809.65C591.69 809.37 592.1 809.04 592.41 808.68C592.73 808.32 592.98 807.94 593.19 807.55C593.36 807.23 593.5 806.99 593.61 806.84C593.72 806.7 593.87 806.57 594.05 806.46L595.93 805.38C596.1 805.28 596.25 805.31 596.38 805.45C596.52 805.59 596.58 805.83 596.56 806.14C596.54 806.54 596.42 807.11 596.2 807.85C595.97 808.59 595.63 809.38 595.18 810.23C594.73 811.08 594.16 811.9 593.5 812.7C592.84 813.49 592.07 814.15 591.2 814.65C590.32 815.16 589.53 815.34 588.82 815.22C588.11 815.08 587.5 814.66 587 813.95C586.5 813.24 586.12 812.27 585.85 811.05C585.58 809.83 585.45 808.39 585.45 806.72ZM591.2 797.15C590.74 797.42 590.36 797.76 590.04 798.18C589.71 798.6 589.45 799.06 589.23 799.56C589.01 800.06 588.84 800.58 588.72 801.1C588.61 801.63 588.53 802.11 588.5 802.54L593.79 799.49C593.76 799.09 593.7 798.69 593.62 798.27C593.54 797.87 593.39 797.53 593.2 797.27C593 797.01 592.74 796.85 592.42 796.8C592.1 796.75 591.69 796.87 591.2 797.15Z" />
					<path id="&lt;Compound Path&gt;" class="shp8" d="M606.38 788.8C605.44 789.35 604.77 790.1 604.35 791.08C603.94 792.06 603.73 793.38 603.73 795.04L603.73 805.87C603.73 806.18 603.67 806.48 603.55 806.77C603.42 807.07 603.27 807.27 603.1 807.36L601.32 808.39C601.15 808.49 601 808.46 600.88 808.31C600.75 808.17 600.69 807.94 600.69 807.63L600.69 788.22C600.69 787.91 600.75 787.61 600.88 787.32C601 787.02 601.15 786.83 601.32 786.73L603.1 785.7C603.27 785.6 603.42 785.63 603.55 785.78C603.67 785.92 603.73 786.15 603.73 786.46L603.73 787.42C604.14 786.51 604.57 785.75 605.03 785.12C605.49 784.5 606.1 783.97 606.85 783.53L607.9 782.92C608.08 782.83 608.22 782.85 608.35 783C608.47 783.15 608.54 783.38 608.54 783.68L608.54 786.43C608.54 786.74 608.47 787.04 608.35 787.33C608.22 787.63 608.08 787.83 607.9 787.92L606.38 788.8Z" />
					<path id="&lt;Compound Path&gt;" class="shp8" d="M628.76 787.34C628.93 787.24 629.08 787.27 629.21 787.42C629.33 787.57 629.39 787.79 629.39 788.1L629.39 791.06C629.39 791.36 629.33 791.66 629.21 791.96C629.08 792.25 628.93 792.45 628.76 792.55L618.5 798.47C618.32 798.57 618.18 798.55 618.05 798.4C617.93 798.25 617.87 798.02 617.87 797.72L617.87 770.8C617.87 770.49 617.93 770.2 618.05 769.9C618.18 769.61 618.32 769.41 618.5 769.31L620.4 768.21C620.57 768.11 620.72 768.14 620.84 768.29C620.97 768.44 621.03 768.67 621.03 768.97L621.03 791.8L628.76 787.34Z" />
					<path id="&lt;Compound Path&gt;" fill-rule="evenodd" class="shp8" d="M637.97 765.15C638.83 764.65 639.61 764.44 640.3 764.51C641 764.58 641.6 764.89 642.11 765.43C642.62 765.97 643.02 766.7 643.32 767.64C643.63 768.58 643.81 769.67 643.85 770.92C643.87 771.16 643.88 771.47 643.88 771.86C643.88 772.25 643.88 772.64 643.88 773.03C643.88 773.42 643.88 773.8 643.88 774.18C643.88 774.55 643.87 774.87 643.85 775.13C643.79 776.44 643.61 777.74 643.32 779.02C643.02 780.3 642.62 781.5 642.11 782.61C641.6 783.73 641 784.72 640.3 785.59C639.61 786.47 638.83 787.15 637.97 787.65C637.11 788.14 636.33 788.36 635.64 788.29C634.95 788.21 634.34 787.92 633.84 787.39C633.33 786.86 632.92 786.13 632.63 785.19C632.33 784.25 632.15 783.16 632.09 781.92C632.07 781.68 632.06 781.37 632.05 781C632.05 780.63 632.04 780.26 632.04 779.86C632.04 779.47 632.05 779.08 632.05 778.69C632.06 778.3 632.07 777.97 632.09 777.71C632.14 776.41 632.31 775.11 632.61 773.82C632.92 772.54 633.33 771.33 633.84 770.2C634.34 769.08 634.95 768.08 635.64 767.21C636.33 766.33 637.11 765.65 637.97 765.15ZM640.81 772.89C640.76 772.05 640.65 771.4 640.47 770.94C640.29 770.47 640.07 770.15 639.8 769.97C639.53 769.79 639.25 769.73 638.93 769.78C638.62 769.83 638.3 769.96 637.97 770.15C637.64 770.33 637.32 770.58 637.01 770.89C636.7 771.2 636.41 771.59 636.14 772.08C635.88 772.57 635.65 773.15 635.48 773.82C635.3 774.49 635.18 775.27 635.14 776.16C635.12 776.39 635.11 776.68 635.1 777.01C635.09 777.35 635.09 777.7 635.09 778.06C635.09 778.42 635.09 778.77 635.1 779.12C635.11 779.46 635.12 779.73 635.14 779.91C635.18 780.74 635.3 781.39 635.48 781.86C635.65 782.32 635.88 782.65 636.14 782.83C636.41 783.01 636.7 783.07 637.01 783.01C637.32 782.96 637.64 782.83 637.97 782.65C638.3 782.46 638.62 782.21 638.93 781.91C639.25 781.6 639.53 781.21 639.8 780.72C640.07 780.23 640.29 779.65 640.47 778.98C640.65 778.3 640.76 777.52 640.81 776.64C640.82 776.44 640.83 776.16 640.83 775.81C640.83 775.46 640.83 775.11 640.83 774.74C640.83 774.39 640.83 774.04 640.83 773.71C640.83 773.37 640.82 773.1 640.81 772.89Z" />
					<path id="&lt;Compound Path&gt;" fill-rule="evenodd" class="shp8" d="M653.04 782.7C653.37 782.51 653.7 782.22 654.05 781.84C654.39 781.46 654.7 781 654.98 780.45C655.27 779.9 655.5 779.27 655.68 778.57C655.86 777.87 655.95 777.12 655.95 776.31L655.95 774.77C655.82 775.09 655.66 775.45 655.45 775.86C655.25 776.27 655 776.69 654.72 777.11C654.43 777.52 654.09 777.92 653.71 778.31C653.33 778.7 652.89 779.03 652.41 779.31C651.63 779.76 650.92 779.9 650.29 779.73C649.65 779.55 649.12 779.14 648.67 778.49C648.22 777.85 647.87 777.01 647.62 775.98C647.36 774.94 647.21 773.8 647.18 772.54C647.16 772.13 647.16 771.65 647.16 771.09C647.16 770.54 647.16 770.05 647.18 769.62C647.21 768.33 647.36 767.02 647.62 765.68C647.87 764.36 648.22 763.11 648.67 761.95C649.12 760.79 649.65 759.76 650.29 758.85C650.92 757.94 651.63 757.27 652.41 756.82C652.89 756.54 653.33 756.37 653.71 756.31C654.09 756.26 654.43 756.28 654.72 756.36C655 756.44 655.25 756.57 655.45 756.74C655.66 756.92 655.82 757.09 655.95 757.27L655.95 756.31C655.95 756.01 656.01 755.71 656.13 755.41C656.26 755.12 656.41 754.92 656.58 754.82L658.36 753.79C658.53 753.7 658.68 753.72 658.81 753.87C658.93 754.02 659 754.25 659 754.55L659 774.09C659 777.45 658.47 780.29 657.41 782.61C656.36 784.93 654.9 786.62 653.04 787.7C652.24 788.16 651.5 788.39 650.82 788.41C650.15 788.43 649.56 788.27 649.06 787.94C648.56 787.6 648.16 787.12 647.86 786.5C647.57 785.88 647.4 785.16 647.37 784.35C647.35 784.05 647.41 783.75 647.55 783.45C647.68 783.15 647.83 782.95 648 782.85L649.6 781.94C649.82 781.81 650 781.83 650.16 782.01C650.31 782.18 650.45 782.35 650.56 782.51C650.76 782.86 651.03 783.09 651.39 783.19C651.74 783.3 652.29 783.13 653.04 782.7ZM650.23 768.15C650.18 768.96 650.18 769.74 650.23 770.49C650.32 772.24 650.63 773.36 651.17 773.84C651.69 774.33 652.34 774.35 653.11 773.91C653.87 773.46 654.52 772.69 655.04 771.58C655.57 770.48 655.87 769.15 655.95 767.6C655.98 767.17 656 766.63 656 765.99C656 765.35 655.98 764.84 655.95 764.44C655.87 763.04 655.57 762.07 655.04 761.54C654.52 761.01 653.87 760.96 653.11 761.41C652.34 761.85 651.69 762.62 651.17 763.72C650.63 764.82 650.32 766.3 650.23 768.15Z" />
					<path id="&lt;Compound Path&gt;" class="shp8" d="M665.93 741.51C666.1 741.41 666.25 741.44 666.37 741.58C666.5 741.73 666.56 741.96 666.56 742.27L666.56 745.52C666.56 745.82 666.5 746.12 666.37 746.42C666.25 746.71 666.1 746.91 665.93 747.01L663.92 748.17C663.74 748.27 663.59 748.25 663.47 748.1C663.34 747.94 663.28 747.72 663.28 747.41L663.28 744.16C663.28 743.86 663.34 743.56 663.47 743.26C663.59 742.97 663.74 742.77 663.92 742.67L665.93 741.51ZM666.45 769.67C666.45 769.97 666.38 770.27 666.26 770.56C666.13 770.86 665.98 771.06 665.81 771.16L664.03 772.18C663.86 772.28 663.71 772.26 663.59 772.11C663.46 771.96 663.4 771.73 663.4 771.42L663.4 752.01C663.4 751.7 663.46 751.4 663.59 751.11C663.71 750.82 663.86 750.62 664.03 750.52L665.81 749.49C665.98 749.39 666.13 749.42 666.26 749.57C666.38 749.72 666.45 749.94 666.45 750.25L666.45 769.67Z" />
					<path id="&lt;Compound Path&gt;" class="shp8" d="M682.29 760.52C682.29 760.83 682.22 761.13 682.1 761.42C681.98 761.71 681.83 761.91 681.66 762.01L679.87 763.04C679.7 763.14 679.55 763.11 679.43 762.96C679.3 762.81 679.24 762.59 679.24 762.28L679.24 751.7C679.24 750.03 679.02 748.82 678.58 748.08C678.15 747.33 677.48 747.22 676.57 747.74C675.74 748.22 675.09 749.09 674.61 750.37C674.14 751.64 673.9 753.12 673.9 754.78L673.9 765.37C673.9 765.67 673.83 765.97 673.71 766.26C673.58 766.56 673.44 766.76 673.27 766.85L671.49 767.88C671.31 767.98 671.16 767.96 671.04 767.8C670.91 767.66 670.85 767.43 670.85 767.12L670.85 747.71C670.85 747.4 670.91 747.1 671.04 746.81C671.16 746.51 671.31 746.32 671.49 746.22L673.27 745.19C673.44 745.09 673.58 745.12 673.71 745.27C673.83 745.41 673.9 745.64 673.9 745.95L673.9 746.91C674.3 745.95 674.78 745.08 675.33 744.29C675.87 743.5 676.52 742.89 677.27 742.46C678.23 741.91 679.02 741.71 679.66 741.87C680.3 742.03 680.82 742.44 681.21 743.1C681.6 743.76 681.88 744.64 682.04 745.72C682.2 746.81 682.29 748.01 682.29 749.31L682.29 760.52Z" />
				</g>
				<g id="&lt;Group&gt;">
					<path id="&lt;Path&gt;" class="shp12" d="M833.62 673.21L804.48 690.03L809 649.16C805.51 647.32 803.29 642.78 803.29 636.27C803.29 624.66 810.35 611.18 819.06 606.15C827.76 601.13 834.82 606.46 834.82 618.07C834.82 624.58 832.6 631.68 829.11 637.55L833.62 673.21Z" />
					<path id="&lt;Path&gt;" class="shp13" d="M833.62 673.21L807.98 658.4L804.48 690.03L833.62 673.21Z" />
					<path id="&lt;Path&gt;" class="shp13" d="M819.06 606.15C813.36 609.44 808.38 616.36 805.61 623.99L829.11 637.56L829.11 637.55C832.6 631.68 834.82 624.58 834.82 618.07C834.82 606.46 827.76 601.13 819.06 606.15Z" />
				</g>
			</g>
			<g id="&lt;Group&gt;">
				<g id="&lt;Group&gt;">
					<g id="&lt;Group&gt;">
						<path id="&lt;Path&gt;" class="shp2" d="M677.39 470.11C667.42 464.34 653.65 465.16 638.43 473.95C608.01 491.51 583.36 534.22 583.36 569.35C583.37 586.97 589.58 599.33 599.61 605.05C602.22 606.54 616.39 614.78 619.02 616.3C628.98 622.07 642.75 621.24 657.96 612.46C688.37 594.9 713.03 552.19 713.03 517.06C713.03 499.51 706.87 487.18 696.91 481.43" />
						<path id="&lt;Path&gt;" class="shp2" d="M657.95 485.26C627.54 502.84 602.88 545.54 602.88 580.66C602.89 615.79 627.55 630.02 657.96 612.46C688.37 594.9 713.06 552.19 713.03 517.06C713 481.94 688.34 467.71 657.95 485.26Z" />
						<path id="&lt;Path&gt;" class="shp2" d="M688.36 563.19L688.36 567.2C680.52 580.59 669.78 592.24 657.95 599.06C646.1 605.89 635.39 606.64 627.55 602.28L627.55 593.97C627.55 577.94 638.43 559.07 652.32 551.04L660.32 546.43C667.42 542.34 674.3 541.81 679.71 544.94C685.23 548.12 688.36 554.76 688.36 563.19Z" />
						<g id="&lt;Group&gt;" style="opacity: 0.4">
							<path id="&lt;Path&gt;" class="shp9" d="M677.39 470.11L696.91 481.43C686.93 475.66 673.17 476.47 657.96 485.26C638.04 496.77 620.59 519.06 610.92 542.94L591.4 531.62C601.07 507.74 618.51 485.45 638.44 473.95C653.66 465.17 667.42 464.34 677.39 470.11Z" />
						</g>
						<g id="&lt;Group&gt;" style="opacity: 0.2">
							<path id="&lt;Path&gt;" class="shp3" d="M618.29 615.88C614.85 613.89 602.02 606.42 599.61 605.05C589.58 599.33 583.36 586.97 583.36 569.35L602.88 580.67C602.89 597.79 608.76 609.95 618.29 615.88Z" />
						</g>
						<g id="&lt;Group&gt;" style="opacity: 0.102">
							<path id="&lt;Path&gt;" class="shp3" d="M591.4 531.62L610.92 542.94C605.82 555.53 602.88 568.55 602.88 580.66L602.88 580.67L583.36 569.35C583.36 557.23 586.31 544.19 591.4 531.62Z" />
						</g>
					</g>
				</g>
				<g id="&lt;Group&gt;">
					<g id="&lt;Group&gt;">
						<path id="&lt;Compound Path&gt;" class="shp9" d="M651.03 544.56C649.12 544.56 647.34 544.1 645.73 543.18C642.02 541.04 639.98 536.79 639.98 531.23C639.98 521.05 646.89 509.09 655.71 503.99L655.71 503.99C660.51 501.21 665.19 500.86 668.93 503C672.64 505.15 674.68 509.39 674.68 514.95C674.68 525.13 667.78 537.1 658.96 542.19C656.23 543.77 653.53 544.56 651.03 544.56Z" />
					</g>
					<g id="&lt;Group&gt;">
						<path id="&lt;Compound Path&gt;" class="shp9" d="M679.71 544.94C674.3 541.81 667.42 542.34 660.32 546.43L652.32 551.04C638.43 559.07 627.55 577.94 627.55 593.97L627.55 602.28C635.39 606.64 646.1 605.89 657.95 599.06C669.78 592.24 680.52 580.59 688.36 567.2L688.36 563.19C688.36 554.76 685.23 548.12 679.71 544.94Z" />
					</g>
				</g>
			</g>
		</g>
	</g>
	<g id="Plants">
		<g id="Plants 10 ">
			<g id="&lt;Group&gt;">
				<g id="&lt;Group&gt;">
					<path id="&lt;Path&gt;" class="shp2" d="M1296.46 1063.94C1299.12 1040.59 1306.26 1019.84 1317.88 1001.71C1335.3 974.52 1359.25 957.55 1381.6 955.78C1403.94 954.02 1421.99 974.57 1398.08 988.69C1374.17 1002.81 1331.69 1017.21 1312.15 1070.02L1296.46 1063.94Z" />
					<path id="&lt;Path&gt;" class="shp14" d="M1296.46 1063.94C1299.12 1040.59 1306.26 1019.84 1317.88 1001.71C1335.3 974.52 1359.25 957.55 1381.6 955.78C1403.94 954.02 1421.99 974.57 1398.08 988.69C1374.17 1002.81 1331.69 1017.21 1312.15 1070.02L1296.46 1063.94Z" />
				</g>
				<g id="&lt;Group&gt;">
					<path id="&lt;Path&gt;" class="shp9" d="M1303.01 1054.84C1302.93 1054.83 1302.85 1054.81 1302.78 1054.78C1302.17 1054.53 1301.87 1053.83 1302.12 1053.22C1325.7 995.15 1370.59 970.9 1391.03 966.19C1391.67 966.04 1392.31 966.45 1392.46 967.09C1392.61 967.73 1392.21 968.37 1391.57 968.52C1371.54 973.13 1327.54 996.96 1304.33 1054.12C1304.12 1054.65 1303.56 1054.94 1303.01 1054.84Z" />
				</g>
			</g>
			<g id="&lt;Group&gt;">
				<g id="&lt;Group&gt;">
					<g id="&lt;Group&gt;">
						<path id="&lt;Path&gt;" class="shp2" d="M1422.37 1055.53C1420.35 1060.09 1415.37 1062.47 1410.73 1064.33C1406.13 1066.18 1401.08 1068.2 1398.57 1072.52C1393.53 1081.23 1401.81 1093.47 1396.4 1101.96C1394.12 1105.51 1389.9 1107.39 1385.74 1108.13C1382.29 1108.78 1378.78 1108.77 1375.28 1109.07C1373.59 1109.03 1371.92 1108.91 1370.3 1108.68C1365.5 1107.98 1360.29 1107.76 1355.89 1110.22C1348.96 1114.11 1346.84 1122.85 1342.63 1129.59C1337.59 1137.66 1328.68 1142.95 1319.31 1144.22C1316.2 1144.63 1310.41 1145.19 1307.24 1143.43C1306.99 1143.29 1306.79 1143.16 1306.59 1143.01C1306.57 1143 1306.55 1142.98 1306.53 1142.95C1306.09 1142.46 1305.55 1141.84 1305.31 1141.5C1305.25 1141.44 1305.22 1141.37 1305.19 1141.29C1303.96 1136.77 1305.97 1132.07 1306.05 1127.41C1306.05 1127.11 1306.06 1126.84 1306.04 1126.56C1305.85 1121.14 1305.69 1115.74 1305.57 1110.33C1305.32 1100.38 1305.2 1090.4 1305.27 1080.44C1305.34 1073.97 1304.56 1066.88 1307.3 1060.79C1310.33 1054.08 1317.87 1053.93 1320.72 1047.36C1321.86 1044.73 1322.47 1041.92 1323.57 1039.27C1326.87 1031.5 1334.86 1025.9 1343.31 1025.49C1356.47 1024.82 1368.28 1035.48 1381.43 1034.51C1384.84 1034.24 1388.15 1033.21 1391.51 1032.59C1402.17 1030.6 1414.49 1033.63 1420.49 1042.65C1422.99 1046.42 1424.2 1051.39 1422.37 1055.53Z" />
					</g>
				</g>
				<g id="&lt;Group&gt;">
					<path id="&lt;Path&gt;" class="shp9" d="M1304.11 1120.56C1304.08 1120.55 1304.05 1120.54 1304.02 1120.54C1303.43 1120.38 1303.07 1119.76 1303.23 1119.16C1321.41 1050.93 1393.31 1041.07 1410.13 1042.28C1410.73 1042.33 1411.21 1042.86 1411.17 1043.48C1411.12 1044.1 1410.58 1044.57 1409.97 1044.52C1393.51 1043.34 1323.19 1052.98 1305.4 1119.74C1305.25 1120.31 1304.68 1120.66 1304.11 1120.56Z" />
				</g>
				<g id="&lt;Group&gt;">
					<path id="&lt;Path&gt;" class="shp9" d="M1383.99 1085.98C1383.77 1085.94 1383.56 1085.84 1383.4 1085.67C1383.22 1085.49 1364.88 1067.41 1334.47 1071.89C1333.86 1071.97 1333.29 1071.55 1333.2 1070.94C1333.11 1070.32 1333.53 1069.75 1334.14 1069.66C1365.73 1065.02 1384.8 1083.9 1384.99 1084.09C1385.43 1084.53 1385.42 1085.24 1384.98 1085.68C1384.71 1085.94 1384.34 1086.05 1383.99 1085.98Z" />
				</g>
			</g>
		</g>
	</g>
	<g id="Clouds">
		<g id="Clouds 1 ">
			<g id="&lt;Group&gt;">
				<path id="&lt;Path&gt;" class="shp15" d="M1131.35 240.02L1140.89 243.69L1140.89 222.66C1140.89 205.98 1154.19 201.99 1168.63 210.32C1183.07 218.66 1194.78 238.93 1194.78 255.61L1194.78 258.66C1198.05 257.35 1202.28 257.86 1206.91 260.53L1206.91 260.53C1217.3 266.53 1225.72 281.12 1225.72 293.12L1225.72 294.51L1239.04 302.19C1245.88 306.14 1251.43 315.75 1251.43 323.65C1251.43 331.55 1245.88 334.76 1239.04 330.8L1131.35 268.63C1124.5 264.68 1118.96 255.07 1118.96 247.17C1118.96 239.27 1124.5 236.07 1131.35 240.02Z" />
			</g>
			<g id="&lt;Group&gt;">
				<path id="&lt;Path&gt;" class="shp15" d="M1259.12 223.39L1276.43 233.38C1276.34 232.61 1276.28 231.84 1276.28 231.09L1276.28 226.08C1276.28 217.16 1282.55 213.54 1290.27 218C1293.4 219.81 1296.28 222.67 1298.61 226.02C1299.88 214.8 1308.68 210.62 1319.37 216.79C1330.93 223.47 1340.3 239.7 1340.3 253.05L1340.3 260.55C1340.3 264.01 1339.67 266.92 1338.53 269.24L1352.91 277.54C1357.2 280.02 1360.67 286.04 1360.67 290.98C1360.67 295.93 1357.2 297.94 1352.91 295.47L1259.12 241.32C1254.83 238.84 1251.36 232.82 1251.36 227.87C1251.36 222.92 1254.83 220.92 1259.12 223.39Z" />
			</g>
		</g>
	</g>
	<g id="Character">
		<g id="Character 3 ">
			<g id="&lt;Group&gt;">
				<g id="&lt;Group&gt;">
					<path id="&lt;Path&gt;" class="shp16" d="M1192.1 678.7C1179.51 700 1167.38 718.51 1158.87 727.38C1142.71 734.89 1104.73 746.45 1089.88 748.38C1087.24 748.73 1084.6 748.05 1082.42 746.63C1076.58 742.8 1072.06 742.18 1065.9 740.05C1061.08 738.38 1059.04 736.08 1058.13 736.95C1056.97 738.08 1055.7 741.28 1058.63 744.59C1060.11 746.26 1062.8 748.08 1066.27 750.3C1059.18 752.19 1052.48 752.31 1046.15 750.65C1033.29 747.27 1027.22 753.45 1035.92 767.42C1039.03 772.42 1051.29 780.42 1076.14 778.26C1083.3 777.64 1093.64 777.04 1102.55 775.14C1126.39 770.05 1152.88 765.12 1169.17 760.26C1173.28 759.03 1180.63 754.28 1185 749.29C1212.4 718.06 1221.47 695.8 1233.49 675.58L1232.45 642.53C1213.03 641.93 1202.65 660.87 1192.1 678.7Z" />
					<path id="&lt;Path&gt;" class="shp12" d="M1235.8 641.93C1224.5 639.52 1214.59 643.75 1206.1 654.63C1197.2 666 1184.9 685.36 1169.18 712.68C1174.33 726.38 1183.85 734.36 1197.73 736.61L1231.17 691.44C1241.73 670.59 1243.27 654.09 1235.8 641.93Z" />
					<g id="&lt;Group&gt;">
						<path id="&lt;Path&gt;" class="shp16" d="M1308.11 1141.48L1286.31 1141.48L1286.31 1102.61L1308.11 1102.61L1308.11 1141.48Z" />
						<path id="&lt;Path&gt;" class="shp16" d="M1232.52 1100.53L1210.73 1101.31L1209.64 1060.17L1232.52 1059.4L1232.52 1100.53Z" />
						<path id="&lt;Path&gt;" class="shp13" d="M1311.18 766.04C1311.18 780.5 1310.11 845.89 1307.99 962.23C1308.49 968.47 1314.11 979.98 1312.9 1003.94C1311.79 1025.65 1310.51 1065.01 1309.04 1122.05C1301.99 1126.34 1293.89 1126.51 1284.77 1122.54C1272.98 1042.62 1265.79 991.91 1263.18 970.4C1260.91 951.63 1256.86 911.11 1251.04 848.84L1239.23 959.07C1241.9 970.26 1242.81 982.29 1241.93 995.15C1241.25 1005.1 1238.57 1035.98 1233.9 1087.79C1227.06 1092.63 1218.66 1093.29 1208.72 1089.8C1200.46 1011.77 1196.24 968.19 1196.07 959.07C1195.88 948.66 1198.29 884.24 1203.32 765.81L1311.18 766.04Z" />
						<path id="&lt;Path&gt;" class="shp6" d="M1286.31 1130.27L1286.31 1127.03C1284.22 1127.97 1279.37 1147.23 1270.72 1155.45C1263.85 1161.98 1254.47 1169.53 1252.08 1176.81C1249.6 1184.39 1265.14 1188.57 1271.57 1187.38C1279.03 1186.01 1291.97 1180.53 1295.22 1175.46C1298.47 1170.38 1299.99 1162.9 1302.63 1159.18C1305.27 1155.46 1311.35 1151.3 1312.78 1147C1313.56 1144.63 1312.63 1139.45 1311.53 1135.08C1310.52 1131.06 1309.43 1126.65 1308.11 1127.02C1308.11 1127.35 1308.11 1128.18 1308.11 1129.5C1306.53 1131.33 1302.15 1133.14 1297.21 1133.34C1294.02 1133.47 1286.28 1132.81 1286.31 1130.27Z" />
						<path id="&lt;Path&gt;" class="shp6" d="M1210.5 1094.31C1209.36 1094.35 1208.44 1096.02 1205.95 1098.83C1202.93 1102.23 1197.99 1105.9 1193.12 1108.44C1184.96 1112.7 1169.08 1119.25 1161.9 1122.62C1157.41 1124.72 1157.62 1130.37 1162.26 1133.58C1166.9 1136.79 1178.1 1139.11 1191.55 1135.98C1198.87 1134.27 1208.41 1127.22 1214.45 1127.6C1220.48 1127.98 1231.78 1127.89 1236.23 1124.69C1240.69 1121.5 1238.91 1114.66 1237.65 1108.79C1236.27 1102.39 1234.55 1092.4 1232.52 1092.84L1232.52 1095.04C1229.9 1099.18 1216.37 1100.86 1210.61 1097.82L1210.5 1094.31Z" />
						<path id="&lt;Path&gt;" class="shp6" d="M1251.04 848.84C1239.43 845.43 1229.31 839.39 1220.68 830.71C1224.59 838.33 1232.35 845.68 1243.96 852.77L1240.24 951.2L1251.04 848.84Z" />
					</g>
					<g id="&lt;Group&gt;">
						<path id="&lt;Path&gt;" class="shp2" d="M1298.97 645.18C1310.92 647.94 1316.49 660.16 1315.69 681.83L1311.92 733.6L1312.02 811.3C1295.99 829.47 1224.91 828.14 1200.58 809.85C1202.42 748.55 1203.88 706.1 1204.98 682.51C1206.15 657.36 1211.93 644.7 1236.66 641.93L1267.06 643.26L1298.97 645.18Z" />
					</g>
					<g id="&lt;Group&gt;">
						<path id="&lt;Path&gt;" class="shp6" d="M1276.07 577.61C1276.07 596.28 1261.53 611.41 1243.61 611.41C1225.68 611.41 1215.07 595.86 1211.15 577.61C1203.97 544.22 1225.68 543.8 1243.61 543.8C1261.53 543.8 1276.07 558.93 1276.07 577.61Z" />
						<g id="&lt;Group&gt;">
							<path id="&lt;Path&gt;" class="shp6" d="M1292.63 591.28C1289.31 607.52 1286.98 616.98 1285.65 619.65C1284.32 622.31 1282.28 624.03 1279.53 624.79L1279.88 607.65L1292.63 591.28Z" />
							<path id="&lt;Path&gt;" class="shp6" d="M1286.38 556.38C1288.76 555.79 1291.21 557.46 1293.74 561.41C1296.99 566.49 1297.73 577.9 1292.63 591.28L1283.25 592.4L1286.38 556.38Z" />
							<path id="&lt;Path&gt;" class="shp6" d="M1289.83 561.32L1301.33 561.53C1301.61 558.23 1299.26 555.51 1296.09 555.45C1292.91 555.39 1290.11 558.02 1289.83 561.32Z" />
							<path id="&lt;Path&gt;" class="shp6" d="M1291.24 558.59L1299.76 550.4C1297.65 547.96 1294.04 547.82 1291.69 550.08C1289.34 552.34 1289.13 556.15 1291.24 558.59Z" />
							<path id="&lt;Path&gt;" class="shp16" d="M1280.44 592.41C1282.32 593.58 1285 589.82 1287.32 587.29C1289.64 584.76 1296.92 582.38 1300.7 590.66C1304.54 599.11 1298.04 607.14 1292.63 609.83C1286.18 613.04 1281.93 612.31 1279.88 607.65L1279.09 646.24C1265.46 667.33 1234.57 666.56 1245.68 645.22L1245.71 633.47C1239.5 634.45 1234.89 634.7 1231.86 634.21C1224.31 633 1219.56 626.79 1217.26 618.27C1213.58 604.6 1212.19 593.55 1215.31 566.65C1218.73 537.17 1251.66 536.86 1269.44 548.52C1281.29 556.29 1284.96 570.92 1280.44 592.41Z" />
							<path id="&lt;Path&gt;" class="shp6" d="M1239.39 562.05C1247.26 561.26 1255.03 559.66 1262.92 559.08C1264.62 558.95 1266.37 558.88 1268.02 559.33C1274.06 560.96 1273.28 567.98 1274.24 572.88C1275.89 581.33 1277.26 595.64 1280.44 595.71C1281.38 595.73 1284.98 589.51 1287.32 587.29C1288.83 585.85 1289.09 582.76 1289.42 580.84C1290.02 577.34 1290.34 573.79 1290.61 570.25C1290.84 567.26 1291.14 564.21 1291.13 561.21C1291.11 557.83 1291.18 554.4 1290.34 551.11C1289.58 548.12 1288.18 545.88 1286.13 543.55C1285.94 543.32 1285.74 543.1 1285.53 542.88C1281.65 538.7 1276.71 535.56 1271.45 533.4C1263.91 530.29 1255.74 529.05 1247.63 528.22C1239.52 527.39 1231.34 526.94 1223.36 525.3C1222.89 525.2 1222.39 525.1 1221.95 525.27C1221.26 525.54 1220.95 526.35 1220.81 527.08C1220.11 530.78 1221.77 534.83 1224.88 536.96C1219.45 537.39 1213.2 534.56 1207.97 533.14C1207.08 532.9 1206.08 532.68 1205.3 533.15C1204.76 533.48 1204.44 534.08 1204.25 534.68C1203.81 536.07 1203.9 537.57 1204.1 539.02C1204.69 543.3 1206.15 547.53 1208.79 550.95C1212.58 555.88 1218.84 560.32 1225 561.55C1229.87 562.53 1234.42 562.54 1239.39 562.05Z" />
							<path id="&lt;Path&gt;" class="shp17" d="M1245.71 633.47C1256.95 631.11 1264.53 628.85 1268.46 626.67C1272.41 624.49 1275.66 620.7 1276.61 618.27C1275.87 621.75 1274.33 625.05 1271.98 628.18C1269.11 632 1260.35 635.33 1245.71 638.14L1245.71 633.47Z" />
						</g>
						<g id="&lt;Group&gt;">
							<path id="&lt;Path&gt;" class="shp6" d="M1249.76 588.02C1249.76 590.04 1251.27 591.67 1253.14 591.67C1255 591.66 1256.52 590.02 1256.52 588C1256.52 585.98 1255 584.35 1253.14 584.35C1251.27 584.36 1249.76 586 1249.76 588.02Z" />
							<path id="&lt;Path&gt;" class="shp6" d="M1255.18 573.45L1262.41 577.61C1263.48 575.44 1262.72 572.76 1260.73 571.61C1258.73 570.46 1256.25 571.29 1255.18 573.45Z" />
							<path id="&lt;Path&gt;" class="shp17" d="M1247.23 612.33L1239.52 615.35C1240.28 617.65 1242.63 618.84 1244.76 618.01C1246.89 617.18 1248 614.63 1247.23 612.33Z" />
							<path id="&lt;Path&gt;" class="shp6" d="M1218.76 576.55L1225.35 571.26C1224.01 569.29 1221.44 568.88 1219.62 570.34C1217.8 571.8 1217.42 574.58 1218.76 576.55Z" />
							<path id="&lt;Path&gt;" class="shp6" d="M1221.66 587.02C1221.66 589.04 1223.17 590.67 1225.04 590.66C1226.9 590.66 1228.41 589.02 1228.41 587C1228.41 584.98 1226.9 583.35 1225.04 583.35C1223.17 583.36 1221.66 585 1221.66 587.02Z" />
							<path id="&lt;Path&gt;" class="shp17" d="M1239.74 584.19L1239.35 605.53L1227.23 602.76L1239.74 584.19Z" />
						</g>
					</g>
				</g>
			</g>
			<g id="&lt;Group&gt;">
				<g id="&lt;Group&gt;">
					<path id="&lt;Path&gt;" class="shp2" d="M951.94 762.83L970.73 751.98L978.18 742.96L959.39 753.81L951.94 762.83Z" />
					<path id="&lt;Path&gt;" class="shp18" d="M951.94 762.83L970.73 751.98L978.18 742.96L959.39 753.81L951.94 762.83Z" />
				</g>
				<g id="&lt;Group&gt;">
					<path id="&lt;Path&gt;" class="shp2" d="M1003.08 792.35L1021.88 781.51L1037.58 767.6L1018.79 778.45L1003.08 792.35Z" />
					<path id="&lt;Path&gt;" class="shp18" d="M1003.08 792.35L1021.88 781.51L1037.58 767.6L1018.79 778.45L1003.08 792.35Z" />
				</g>
				<path id="&lt;Compound Path&gt;" fill-rule="evenodd" class="shp2" d="M1208.28 853.21C1208.28 882.81 1199.03 903.75 1184.75 912.02C1181.88 913.65 1171.31 919.76 1167.02 922.23C1166.89 922.32 1166.77 922.41 1166.65 922.44C1166.4 922.6 1166.12 922.75 1165.85 922.91C1165.32 923.22 1164.8 923.49 1164.24 923.74C1163.69 924.05 1163.1 924.33 1162.52 924.54C1161.96 924.76 1161.41 924.97 1160.85 925.19C1160.14 925.47 1159.4 925.68 1158.66 925.84C1158.14 925.96 1157.61 926.08 1157.09 926.21C1153.48 926.92 1149.62 926.95 1145.65 926.24C1144.44 926.05 1143.24 925.78 1142.04 925.44C1140.71 925.07 1139.35 924.63 1138 924.08C1135.62 923.18 1133.22 922.01 1130.75 920.59C1111.5 909.46 1094.42 885.31 1083.68 857.09C1083.41 856.35 1083.16 855.67 1082.94 854.99C1080.54 848.46 1078.47 841.76 1076.84 834.92L1044.55 816.29L1038.07 789.58L1018.79 778.45L1003.1 792.35L990.57 785.14L979.19 765.65L959.39 753.8L951.93 762.84L929.48 749.86L906.78 701.8L906.78 694.83L909.86 693.05L909.86 690.52L908.38 689.65L906.78 688.73L906.78 676.76L925.56 665.94L1080.11 755.16C1080.6 754.14 1081.12 753.16 1081.65 752.23C1082.7 750.32 1083.87 748.56 1085.1 746.93C1085.69 746.12 1086.34 745.35 1086.99 744.61C1087.51 744 1088.06 743.38 1088.62 742.82C1088.84 742.64 1089.02 742.42 1089.21 742.27C1090.5 741 1091.86 739.89 1093.28 738.91C1094.02 738.38 1094.79 737.89 1095.56 737.46C1095.87 737.24 1096.21 737.06 1096.55 736.87C1100.74 734.47 1111.38 728.33 1114.25 726.66C1124.06 720.93 1136.3 721.2 1149.53 728.85C1177.1 744.77 1200.23 787.36 1206.56 830.41C1207.7 838.03 1208.28 845.68 1208.28 853.21ZM1170.64 850.3C1169.99 842.78 1166.99 835.09 1162.87 829.84C1163.51 837.36 1166.52 845.05 1170.64 850.3Z" />
				<path id="&lt;Compound Path&gt;" fill-rule="evenodd" class="shp2" d="M1189.5 864.06C1189.5 892.96 1180.71 913.59 1167.02 922.23C1166.89 922.32 1166.77 922.41 1166.65 922.44C1166.4 922.6 1166.12 922.75 1165.85 922.91C1165.32 923.22 1164.8 923.49 1164.24 923.74C1163.69 924.05 1163.1 924.33 1162.52 924.54C1161.96 924.76 1161.41 924.97 1160.85 925.19C1160.14 925.47 1159.4 925.68 1158.66 925.84C1158.14 925.96 1157.61 926.08 1157.09 926.21C1153.48 926.92 1149.62 926.95 1145.65 926.24C1144.44 926.05 1143.24 925.78 1142.04 925.44C1140.71 925.07 1139.35 924.63 1138 924.08C1135.62 923.18 1133.22 922.01 1130.75 920.59C1111.5 909.46 1094.42 885.31 1083.68 857.09C1083.41 856.35 1083.16 855.67 1082.94 854.99C1080.54 848.46 1078.47 841.76 1076.84 834.92L1044.55 816.29L1038.07 789.58L1018.79 778.45L1003.1 792.35L990.57 785.14L979.19 765.65L959.39 753.8L951.93 762.84L929.48 749.86L906.78 701.8L906.78 694.83L909.86 693.05L909.86 690.52L908.38 689.65L906.78 688.73L906.78 676.76L1074.15 773.42C1075.51 766.51 1077.55 760.4 1080.11 755.16C1080.6 754.14 1081.12 753.16 1081.65 752.23C1082.7 750.32 1083.87 748.56 1085.1 746.93C1085.69 746.12 1086.34 745.35 1086.99 744.61C1087.51 744 1088.06 743.38 1088.62 742.82C1088.84 742.64 1089.02 742.42 1089.21 742.27C1090.5 741 1091.86 739.89 1093.28 738.91C1094.02 738.38 1094.79 737.89 1095.56 737.46C1095.87 737.24 1096.21 737.06 1096.55 736.87C1106.17 731.78 1117.98 732.34 1130.75 739.71C1158.32 755.62 1181.45 798.21 1187.77 841.24C1188.88 848.89 1189.5 856.54 1189.5 864.06ZM1170.78 853.25C1170.78 841.83 1164.77 829.11 1157.36 824.83C1149.94 820.55 1143.93 826.33 1143.93 837.74C1143.93 849.16 1149.94 861.88 1157.36 866.16C1164.77 870.44 1170.78 864.66 1170.78 853.25Z" />
				<path id="&lt;Path&gt;" class="shp18" d="M1170.78 853.24C1170.78 864.65 1164.77 870.45 1157.37 866.16C1149.93 861.87 1143.92 849.16 1143.92 837.75C1143.92 826.34 1149.93 820.54 1157.37 824.83C1159.34 825.97 1161.22 827.7 1162.85 829.86C1163.5 837.35 1166.52 845.06 1170.63 850.31C1170.75 851.29 1170.78 852.28 1170.78 853.24Z" />
				<path id="&lt;Path&gt;" class="shp19" d="M1208.28 853.21C1208.28 882.81 1199.03 903.75 1184.75 912.02C1181.88 913.65 1171.31 919.76 1167.02 922.23C1180.71 913.59 1189.5 892.96 1189.5 864.06C1189.5 856.54 1188.88 848.89 1187.77 841.24C1181.45 798.21 1158.32 755.62 1130.75 739.71C1117.98 732.34 1106.17 731.78 1096.55 736.87C1100.74 734.47 1111.38 728.33 1114.25 726.66C1124.06 720.93 1136.3 721.2 1149.53 728.85C1177.1 744.77 1200.23 787.36 1206.56 830.41C1207.7 838.03 1208.28 845.68 1208.28 853.21Z" />
				<g id="&lt;Group&gt;">
					<path id="&lt;Path&gt;" class="shp2" d="M1189.5 864.06C1189.5 892.96 1180.71 913.59 1167.02 922.23C1171.31 919.76 1181.88 913.65 1184.75 912.02C1199.03 903.75 1208.28 882.81 1208.28 853.21C1208.28 852.11 1208.24 851.01 1208.22 849.91C1201.77 853.64 1195.24 857.41 1189.44 860.76C1189.46 861.86 1189.5 862.96 1189.5 864.06Z" />
					<path id="&lt;Path&gt;" class="shp14" d="M1189.5 864.06C1189.5 892.96 1180.71 913.59 1167.02 922.23C1171.31 919.76 1181.88 913.65 1184.75 912.02C1199.03 903.75 1208.28 882.81 1208.28 853.21C1208.28 852.11 1208.24 851.01 1208.22 849.91C1201.77 853.64 1195.24 857.41 1189.44 860.76C1189.46 861.86 1189.5 862.96 1189.5 864.06Z" />
				</g>
				<g id="&lt;Group&gt;">
					<path id="&lt;Path&gt;" class="shp10" d="M1074.83 785.75L1074.83 791.86L906.78 694.83L909.86 693.05L909.86 690.52L1074.83 785.75Z" />
					<path id="&lt;Path&gt;" class="shp10" d="M1074.83 788.28L1074.83 791.86L906.78 694.83L909.86 693.05L909.86 693.01L1074.83 788.28Z" />
				</g>
				<path id="&lt;Path&gt;" class="shp20" d="M1081.83 801.89C1081.83 843.48 1103.73 889.85 1130.75 905.45C1157.76 921.05 1179.67 899.97 1179.67 858.38C1179.67 816.78 1157.76 770.41 1130.75 754.81C1103.73 739.22 1081.83 760.29 1081.83 801.89Z" />
				<path id="&lt;Path&gt;" class="shp19" d="M1080.11 755.16C1077.55 760.4 1075.51 766.51 1074.15 773.42L906.78 676.76L925.56 665.94L1080.11 755.16Z" />
			</g>
			<g id="&lt;Group&gt;">
				<path id="&lt;Path&gt;" class="shp16" d="M1297.52 764.56C1306.3 747.96 1316.3 710.7 1321.28 691.9C1328.36 665.19 1316.91 648.38 1303.9 647.7C1298.47 648.53 1286.83 681.42 1268.98 746.37C1266.01 748.74 1225.26 769.39 1212.17 774.59C1209.85 775.51 1207.27 775.47 1204.92 774.61C1198.64 772.32 1194.36 772.75 1188.2 772.13C1183.38 771.65 1180.94 769.94 1180.33 770.97C1179.55 772.3 1179.19 775.61 1182.7 778.07C1184.46 779.31 1187.37 780.42 1191.09 781.74C1186.45 783.35 1181.04 784.08 1174.85 783.94C1162.26 783.66 1157.73 789.13 1167.5 801.89C1173.61 809.88 1183.45 812.4 1205.6 804.74C1211.98 802.53 1220.62 798.24 1228.67 795.32C1245.31 789.28 1249.58 788.62 1262.35 784.32C1280.78 778.12 1293.62 771.92 1297.52 764.56Z" />
				<path id="&lt;Path&gt;" class="shp12" d="M1298.97 645.18C1306.63 646.22 1314.05 647.95 1318.5 654.14C1322.96 660.32 1326.67 669.05 1322.21 693.01C1319.25 708.99 1314.71 725.47 1308.6 742.44C1296.73 747.51 1284.48 743.61 1271.85 730.74L1284.86 680.4C1286.34 658.6 1291.05 646.86 1298.97 645.18Z" />
			</g>
		</g>
	</g>
</svg>